<svg width="24" height="24" viewBox="0 0 24 24" fill="none" xmlns="http://www.w3.org/2000/svg">
<path d="M20.3606 14.2862C19.9265 16.1571 18.873 17.8264 17.371 19.0234C15.869 20.2203 14.0066 20.8745 12.0861 20.88C11.4346 20.8797 10.7852 20.805 10.1506 20.6574C8.42208 20.2567 6.86184 19.3262 5.68789 17.9956C4.51395 16.6651 3.78493 15.0011 3.60269 13.2361C3.58898 13.0997 3.63002 12.9635 3.71679 12.8573C3.80356 12.7511 3.92894 12.6838 4.06535 12.6701C4.20177 12.6564 4.33805 12.6974 4.4442 12.7842C4.55036 12.871 4.6177 12.9963 4.63141 13.1328C4.76184 14.3951 5.21138 15.6035 5.93771 16.6442C6.66404 17.6849 7.64326 18.5237 8.78319 19.0815C9.92312 19.6393 11.1863 19.8978 12.4537 19.8328C13.7211 19.7677 14.9511 19.3812 16.0279 18.7095C17.7101 17.6598 18.9063 15.9849 19.3535 14.0532C19.8008 12.1215 19.4623 10.0913 18.4126 8.4091C17.3629 6.72696 15.688 5.5307 13.7562 5.08349C11.8245 4.63628 9.7943 4.97475 8.11216 6.02445L6.98108 6.73059L9.40348 6.977C9.53509 6.99064 9.65646 7.05422 9.7426 7.15466C9.82874 7.2551 9.87308 7.38475 9.8665 7.5169C9.85992 7.64905 9.80291 7.77365 9.70722 7.86504C9.61153 7.95642 9.48444 8.00763 9.35213 8.00813C9.33451 8.00825 9.31691 8.00733 9.2994 8.00537L5.37339 7.60733C5.36374 7.60733 5.35478 7.60319 5.34513 7.60181C5.32609 7.59893 5.30723 7.59502 5.28861 7.59009C5.27724 7.58699 5.26587 7.58355 5.25415 7.57976C5.25139 7.57976 5.24864 7.57976 5.24588 7.57976C5.24312 7.57976 5.23657 7.57493 5.23175 7.57286C5.21915 7.56794 5.20684 7.5623 5.19487 7.55598C5.18454 7.55115 5.17454 7.54598 5.16455 7.54012L5.14249 7.5222C5.13215 7.51531 5.12216 7.50773 5.11216 7.4998C5.10217 7.49188 5.09459 7.48636 5.08632 7.47912C5.07805 7.47189 5.07046 7.46499 5.06323 7.45741C5.05599 7.44983 5.04772 7.44087 5.04014 7.43225C5.03255 7.42364 5.02532 7.41537 5.01842 7.40641C5.01153 7.39745 5.00429 7.38745 4.99775 7.37746C4.99499 7.37332 4.9912 7.36988 4.98844 7.3654C4.98569 7.36092 4.98396 7.3554 4.9812 7.35092C4.97845 7.34644 4.97052 7.33197 4.96535 7.32197C4.96018 7.31198 4.95501 7.29957 4.95053 7.28751C4.94605 7.27545 4.94192 7.26718 4.93847 7.25684C4.93502 7.2465 4.93227 7.23823 4.92986 7.22858C4.92744 7.21893 4.924 7.20445 4.92158 7.19239C4.91917 7.18033 4.91676 7.1693 4.91538 7.15793C4.914 7.14656 4.91331 7.14001 4.91262 7.1307C4.91193 7.1214 4.91262 7.10589 4.91262 7.09314C4.91262 7.08039 4.91262 7.06798 4.91262 7.05523C4.91262 7.04972 4.91262 7.04455 4.91262 7.03903C4.91262 7.03352 4.91262 7.0318 4.91504 7.028C4.91504 7.01698 4.91848 7.0056 4.92055 6.99354C4.92262 6.98148 4.92641 6.96666 4.9302 6.95357C4.93399 6.94047 4.93537 6.93461 4.93847 6.92565C4.94157 6.91669 4.94019 6.91635 4.94192 6.91186L6.30699 3.2109C6.35587 3.08419 6.45264 2.98181 6.5764 2.92588C6.70015 2.86995 6.84095 2.86497 6.96835 2.912C7.09575 2.95904 7.19952 3.05433 7.25723 3.17726C7.31495 3.30019 7.32197 3.4409 7.27678 3.56897L6.43381 5.85351L7.56488 5.14771C8.99272 4.25657 10.6528 3.80887 12.335 3.86123C14.0173 3.91358 15.6463 4.46363 17.016 5.44183C18.3857 6.42002 19.4345 7.78242 20.0298 9.35672C20.6252 10.931 20.7403 12.6465 20.3606 14.2862ZM8.72663 16.4012L12.4007 12.7289C12.4487 12.6808 12.4868 12.6238 12.5127 12.5611C12.5387 12.4983 12.552 12.4311 12.552 12.3632V8.60675C12.552 8.46965 12.4975 8.33816 12.4006 8.24121C12.3037 8.14427 12.1722 8.08981 12.0351 8.08981C11.898 8.08981 11.7665 8.14427 11.6695 8.24121C11.5726 8.33816 11.5181 8.46965 11.5181 8.60675V12.1492L7.99705 15.6716C7.91026 15.7703 7.86428 15.8983 7.86848 16.0296C7.87267 16.1609 7.92671 16.2857 8.01962 16.3786C8.11253 16.4715 8.23733 16.5256 8.36866 16.5298C8.49999 16.534 8.62798 16.488 8.72663 16.4012Z" fill="white"/>
</svg>
